<svg width="512" height="512" viewBox="0 0 512 512" fill="none" xmlns="http://www.w3.org/2000/svg">
  <!-- Background circle -->
  <circle cx="256" cy="256" r="256" fill="#0a0a1a"/>

  <!-- Outer ring -->
  <circle cx="256" cy="256" r="220" fill="none" stroke="#fbbf24" stroke-width="8"/>

  <!-- Inner circle -->
  <circle cx="256" cy="256" r="180" fill="#12122a"/>

  <!-- Crown -->
  <path d="M256 180L280 220L320 200L300 250L340 270L256 290L172 270L212 250L192 200L232 220L256 180Z" fill="#fbbf24"/>
  <rect x="190" y="285" width="132" height="30" rx="5" fill="#fbbf24"/>

  <!-- Decorative circles -->
  <circle cx="256" cy="195" r="8" fill="#fbbf24"/>
  <circle cx="232" cy="225" r="6" fill="#fbbf24"/>
  <circle cx="280" cy="225" r="6" fill="#fbbf24"/>

  <!-- Roulette segments hint -->
  <path d="M256 256 L256 100" stroke="#6366f1" stroke-width="2" opacity="0.3"/>
  <path d="M256 256 L400 256" stroke="#6366f1" stroke-width="2" opacity="0.3"/>
  <path d="M256 256 L256 412" stroke="#6366f1" stroke-width="2" opacity="0.3"/>
  <path d="M256 256 L112 256" stroke="#6366f1" stroke-width="2" opacity="0.3"/>
</svg>
